<svg width="41" height="41" viewBox="0 0 41 41" fill="none" xmlns="http://www.w3.org/2000/svg">
<path fill-rule="evenodd" clip-rule="evenodd" d="M4.71834 6.1226C4.72234 6.1226 4.62234 6.2266 4.49634 6.35061C4.01234 6.8206 3.01034 7.7986 3.00023 9.8446C2.98434 12.7066 4.86633 18.0206 13.9283 27.0806C22.9483 36.0966 28.2543 38.0006 31.1223 38.0006H31.1643C33.2103 37.9906 34.1863 36.9866 34.6583 36.5046C34.8023 36.3566 34.9183 36.2486 35.0003 36.1806C36.9923 34.1766 38.0123 32.6846 38.0024 31.7286C37.9883 30.7526 36.7743 29.5986 35.0963 28.0026C34.5623 27.4946 33.9823 26.9426 33.3703 26.3306C31.7843 24.7486 30.9983 25.0186 29.2703 25.6266C26.8803 26.4646 23.6003 27.6046 18.5043 22.5066C13.4003 17.4066 14.5423 14.1306 15.3783 11.7406C15.9823 10.0126 16.2583 9.2246 14.6703 7.6366C14.0483 7.0166 13.4903 6.42861 12.9763 5.88861C11.3903 4.2206 10.2463 3.0146 9.27634 3.0006H9.26033C8.30233 3.0006 6.81434 4.0246 4.70834 6.1306C4.71434 6.1246 4.71634 6.1226 4.71834 6.1226ZM31.1243 41.0006C26.1403 41.0006 19.6423 37.0326 11.8083 29.2026C3.94434 21.3406 -0.0296647 14.8226 0.000166705 9.8286C0.0183353 6.5286 1.74834 4.8386 2.39834 4.20461C2.43234 4.16261 2.54834 4.0486 2.58834 4.00861C5.45634 1.13861 7.39034 -0.021395 9.31433 0.000298274C11.5483 0.030605 13.1383 1.70261 15.1503 3.82061C15.6483 4.3446 16.1883 4.91461 16.7903 5.51461C19.7103 8.4346 18.8783 10.8166 18.2103 12.7286C17.4823 14.8146 16.8523 16.6146 20.6243 20.3866C24.4003 24.1586 26.2003 23.5286 28.2783 22.7946C30.1923 22.1266 32.5683 21.2906 35.4923 24.2106C36.0843 24.8026 36.6463 25.3366 37.1643 25.8306C39.2923 27.8526 40.9723 29.4506 41.0007 31.6906C41.0243 33.6006 39.8643 35.5466 37.0003 38.4126L35.7323 37.5526L36.8043 38.6006C36.1703 39.2506 34.4823 40.9826 31.1803 41.0006H31.1243Z" fill="black"/>
</svg>
