<svg width="41" height="44" viewBox="0 0 41 44" fill="none" xmlns="http://www.w3.org/2000/svg">
<path fill-rule="evenodd" clip-rule="evenodd" d="M23.434 28.5825C25.842 28.5825 27.802 30.5285 27.802 32.9205V39.0725C27.802 39.5865 28.214 39.9985 28.742 40.0105H32.554C35.558 40.0105 38 37.5985 38 34.6345V17.1865C37.986 16.1665 37.5 15.2065 36.666 14.5685L23.48 4.0525C21.71 2.6505 19.234 2.6505 17.458 4.0565L4.362 14.5645C3.496 15.2225 3.01 16.1825 3 17.2205V34.6345C3 37.5985 5.442 40.0105 8.446 40.0105H12.294C12.836 40.0105 13.276 39.5805 13.276 39.0525C13.276 38.9365 13.29 38.8205 13.314 38.7105V32.9205C13.314 30.5425 15.262 28.5985 17.652 28.5825H23.434ZM32.554 43.0105H28.706C26.502 42.9585 24.802 41.2285 24.802 39.0725V32.9205C24.802 32.1825 24.188 31.5825 23.434 31.5825H17.662C16.924 31.5865 16.314 32.1885 16.314 32.9205V39.0525C16.314 39.2025 16.294 39.3465 16.252 39.4825C16.036 41.4625 14.344 43.0105 12.294 43.0105H8.446C3.788 43.0105 0 39.2525 0 34.6345V17.2065C0.02 15.2185 0.936 13.3985 2.518 12.2005L15.588 1.7105C18.466 -0.5695 22.476 -0.5695 25.348 1.7065L38.512 12.2065C40.058 13.3845 40.974 15.2005 41 17.1645V34.6345C41 39.2525 37.212 43.0105 32.554 43.0105Z" fill="black"/>
</svg>
