<svg width="85" height="76" viewBox="0 0 85 76" fill="none" xmlns="http://www.w3.org/2000/svg">
<path d="M66.9476 0C76.5911 0 84.4402 7.77739 84.4402 17.3328L84.4444 28.637C84.4444 29.4654 84.1109 30.2686 83.5198 30.8543C82.9244 31.4442 82.1222 31.7747 81.2778 31.7747C77.8113 31.7747 74.9909 34.5694 74.9909 38.0042C74.9909 41.439 77.8113 44.2336 81.2778 44.2336C83.0258 44.2336 84.4444 45.6393 84.4444 47.3714V58.6714C84.4444 68.2268 76.5996 76 66.956 76H17.4927C7.84911 76 0 68.2268 0 58.6714V47.3714C0 45.6393 1.41867 44.2336 3.16667 44.2336C6.63733 44.2336 9.45778 41.439 9.45778 38.0042C9.45778 34.6573 6.75133 32.1387 3.16667 32.1387C2.32644 32.1387 1.52422 31.8082 0.928889 31.2183C0.333556 30.6284 0 29.8294 0 29.001L0.00844445 17.3328C0.00844445 7.77739 7.85333 0 17.4969 0H66.9476ZM42.2307 21.7591C41.0316 21.7591 39.9591 22.4201 39.4229 23.4828L36.3449 29.662L29.4796 30.6535C28.2931 30.8209 27.322 31.6241 26.9462 32.7537C26.5747 33.8833 26.8744 35.1049 27.7358 35.9333L32.7138 40.7361L31.54 47.5261C31.3373 48.6976 31.8144 49.8606 32.7856 50.5593C33.3344 50.9484 33.972 51.1492 34.618 51.1492C35.112 51.1492 35.6102 51.0279 36.0662 50.7894L42.2222 47.5847L48.3656 50.781C49.4296 51.3458 50.692 51.258 51.6589 50.5551C52.6342 49.8606 53.1113 48.6976 52.9087 47.5261L51.7307 40.7361L56.7087 35.9333C57.5742 35.1049 57.874 33.8833 57.4982 32.7537C57.1267 31.6241 56.1556 30.8209 54.9818 30.6577L48.1038 29.662L45.0258 23.487C44.498 22.4243 43.4256 21.7633 42.2307 21.7591Z" fill="#FDC66B"/>
</svg>
