<svg width="43" height="39" viewBox="0 0 43 39" fill="none" xmlns="http://www.w3.org/2000/svg">
<path fill-rule="evenodd" clip-rule="evenodd" d="M31.318 0C37.978 0 43 5.434 43 12.64V26.376C43 30.064 41.696 33.396 39.326 35.76C37.2 37.878 34.442 39 31.35 39H11.644C8.558 39 5.802 37.88 3.674 35.76C1.304 33.396 0 30.064 0 26.376V12.64C0 5.434 5.022 0 11.682 0H31.318ZM31.318 3H11.682C6.652 3 3 7.054 3 12.64V26.376C3 29.262 3.992 31.84 5.792 33.634C7.344 35.184 9.37 36 11.65 36H31.318C31.322 35.996 31.338 36 31.35 36C33.632 36 35.656 35.184 37.208 33.634C39.01 31.84 40 29.262 40 26.376V12.64C40 7.054 36.348 3 31.318 3ZM34.47 12.2576C34.992 12.8996 34.894 13.8436 34.252 14.3676L25.364 21.5916C24.24 22.4836 22.896 22.9296 21.554 22.9296C20.216 22.9296 18.882 22.4876 17.766 21.6036L8.796 14.3716C8.15 13.8516 8.05 12.9056 8.568 12.2616C9.09 11.6196 10.034 11.5176 10.678 12.0356L19.64 19.2596C20.766 20.1516 22.352 20.1516 23.486 19.2516L32.358 12.0396C33.002 11.5136 33.946 11.6136 34.47 12.2576Z" fill="black"/>
</svg>
